<mxfile host="drawio-plugin" modified="2021-11-10T16:45:03.536Z" agent="5.0 (Macintosh; Intel Mac OS X 11_5_2) AppleWebKit/537.36 (KHTML, like Gecko) Chrome/89.0.4389.114 Safari/537.36" etag="OF3aFbZtOODpE7mt24eh" version="14.7.4" type="embed"><diagram id="23iRSUPoRavnBvh4doch" name="Page-1"><mxGraphModel dx="1095" dy="783" grid="1" gridSize="10" guides="1" tooltips="1" connect="1" arrows="1" fold="1" page="1" pageScale="1" pageWidth="827" pageHeight="1169" math="0" shadow="0"><root><mxCell id="0"/><mxCell id="1" parent="0"/><mxCell id="4" value="kit" style="shape=folder;fontStyle=1;tabWidth=60;tabHeight=20;tabPosition=left;html=1;boundedLbl=1;align=left;verticalAlign=top;container=1;dropTarget=1;recursiveResize=0;" vertex="1" parent="1"><mxGeometry x="210" y="70" width="150" height="120" as="geometry"/></mxCell><mxCell id="48" value="«Атом»&lt;br&gt;&lt;b&gt;Component&lt;/b&gt;" style="html=1;dropTarget=0;align=left;verticalAlign=top;" vertex="1" parent="4"><mxGeometry x="20" y="60" width="110" height="40" as="geometry"/></mxCell><mxCell id="49" value="" style="shape=module;jettyWidth=8;jettyHeight=4;" vertex="1" parent="48"><mxGeometry x="1" width="20" height="20" relative="1" as="geometry"><mxPoint x="-27" y="7" as="offset"/></mxGeometry></mxCell><mxCell id="5" value="material" style="shape=folder;fontStyle=1;tabWidth=61;tabHeight=20;tabPosition=left;html=1;boundedLbl=1;align=left;verticalAlign=top;container=1;dropTarget=1;recursiveResize=0;" vertex="1" parent="1"><mxGeometry x="420" y="70" width="170" height="120" as="geometry"/></mxCell><mxCell id="50" value="«Атом»&lt;br&gt;&lt;b&gt;Component&lt;/b&gt;" style="html=1;dropTarget=0;align=left;verticalAlign=top;" vertex="1" parent="5"><mxGeometry x="20" y="60" width="110" height="40" as="geometry"/></mxCell><mxCell id="51" value="" style="shape=module;jettyWidth=8;jettyHeight=4;" vertex="1" parent="50"><mxGeometry x="1" width="20" height="20" relative="1" as="geometry"><mxPoint x="-27" y="7" as="offset"/></mxGeometry></mxCell><mxCell id="151" value="other modules" style="shape=folder;fontStyle=1;tabWidth=50;tabHeight=20;tabPosition=left;html=1;boundedLbl=1;sketch=0;fontSize=10;align=center;verticalAlign=middle;" vertex="1" parent="1"><mxGeometry x="650" y="130" width="150" height="60" as="geometry"/></mxCell><mxCell id="6" value="marketplace" style="shape=umlFrame;whiteSpace=wrap;html=1;width=120;height=30;boundedLbl=1;verticalAlign=middle;align=left;spacingLeft=5;container=1;dropTarget=1;collapsible=0;recursiveResize=0;" vertex="1" parent="1"><mxGeometry x="29" y="300" width="781" height="930" as="geometry"/></mxCell><mxCell id="9" value="shared" style="shape=folder;fontStyle=1;spacingTop=10;tabWidth=40;tabHeight=14;tabPosition=left;html=1;align=left;labelPosition=center;verticalLabelPosition=middle;verticalAlign=top;container=1;dropTarget=1;recursiveResize=0;" vertex="1" parent="6"><mxGeometry x="85" y="40" width="600" height="130" as="geometry"/></mxCell><mxCell id="46" value="«Атом»&lt;br&gt;&lt;b&gt;Component&lt;/b&gt;" style="html=1;dropTarget=0;align=left;verticalAlign=top;" vertex="1" parent="9"><mxGeometry x="45" y="30" width="130" height="40" as="geometry"/></mxCell><mxCell id="47" value="" style="shape=module;jettyWidth=8;jettyHeight=4;" vertex="1" parent="46"><mxGeometry x="1" width="20" height="20" relative="1" as="geometry"><mxPoint x="-27" y="7" as="offset"/></mxGeometry></mxCell><mxCell id="52" value="http interface" style="shape=folder;fontStyle=1;tabWidth=71;tabHeight=15;tabPosition=left;html=1;boundedLbl=1;folderSymbol=triangle;align=left;verticalAlign=top;" vertex="1" parent="9"><mxGeometry x="415" y="30" width="110" height="45" as="geometry"/></mxCell><mxCell id="53" value="«Малекула»&lt;br&gt;&lt;b&gt;Component&lt;/b&gt;" style="html=1;dropTarget=0;align=left;verticalAlign=top;" vertex="1" parent="9"><mxGeometry x="212" y="30" width="113" height="40" as="geometry"/></mxCell><mxCell id="54" value="" style="shape=module;jettyWidth=8;jettyHeight=4;" vertex="1" parent="53"><mxGeometry x="1" width="20" height="20" relative="1" as="geometry"><mxPoint x="-27" y="7" as="offset"/></mxGeometry></mxCell><mxCell id="84" value="components export" style="rounded=0;whiteSpace=wrap;html=1;align=center;verticalAlign=middle;" vertex="1" parent="9"><mxGeometry x="136" y="110" width="110" height="20" as="geometry"/></mxCell><mxCell id="64" style="edgeStyle=orthogonalEdgeStyle;rounded=0;orthogonalLoop=1;jettySize=auto;html=1;exitX=0.5;exitY=1;exitDx=0;exitDy=0;endArrow=oval;endFill=1;entryX=0.5;entryY=0;entryDx=0;entryDy=0;" edge="1" parent="9" source="46" target="84"><mxGeometry relative="1" as="geometry"><mxPoint x="-155" y="230" as="targetPoint"/></mxGeometry></mxCell><mxCell id="85" style="edgeStyle=orthogonalEdgeStyle;rounded=0;jumpStyle=none;orthogonalLoop=1;jettySize=auto;html=1;exitX=0.5;exitY=1;exitDx=0;exitDy=0;entryX=0.75;entryY=0;entryDx=0;entryDy=0;endArrow=oval;endFill=1;" edge="1" parent="9" source="53" target="84"><mxGeometry relative="1" as="geometry"/></mxCell><mxCell id="10" value="c2c" style="shape=folder;fontStyle=1;spacingTop=10;tabWidth=91;tabHeight=20;tabPosition=left;html=1;align=left;labelPosition=center;verticalLabelPosition=middle;verticalAlign=top;container=1;dropTarget=1;recursiveResize=0;" vertex="1" parent="6"><mxGeometry x="39" y="250" width="728" height="660" as="geometry"/></mxCell><mxCell id="142" style="edgeStyle=orthogonalEdgeStyle;rounded=0;jumpStyle=none;orthogonalLoop=1;jettySize=auto;html=1;exitX=0.75;exitY=1;exitDx=0;exitDy=0;fontSize=10;endArrow=open;endFill=0;dashed=1;" edge="1" parent="10" source="55" target="88"><mxGeometry relative="1" as="geometry"><mxPoint x="-179" y="130" as="targetPoint"/><Array as="points"><mxPoint x="379" y="190"/><mxPoint x="466" y="190"/></Array></mxGeometry></mxCell><mxCell id="55" value="«Представление»&lt;br&gt;&lt;b&gt;Component&lt;/b&gt;" style="html=1;dropTarget=0;align=left;verticalAlign=top;" vertex="1" parent="10"><mxGeometry x="281" y="130" width="130" height="40" as="geometry"/></mxCell><mxCell id="56" value="" style="shape=module;jettyWidth=8;jettyHeight=4;" vertex="1" parent="55"><mxGeometry x="1" width="20" height="20" relative="1" as="geometry"><mxPoint x="-27" y="7" as="offset"/></mxGeometry></mxCell><mxCell id="154" style="edgeStyle=orthogonalEdgeStyle;rounded=0;jumpStyle=none;orthogonalLoop=1;jettySize=auto;html=1;exitX=0.5;exitY=0;exitDx=0;exitDy=0;entryX=0.065;entryY=0.03;entryDx=0;entryDy=0;entryPerimeter=0;fontSize=10;endArrow=none;endFill=0;" edge="1" parent="10" source="57" target="10"><mxGeometry relative="1" as="geometry"/></mxCell><mxCell id="57" value="store" style="html=1;align=center;verticalAlign=top;rounded=1;absoluteArcSize=1;arcSize=10;dashed=0;spacingLeft=6;" vertex="1" parent="10"><mxGeometry x="51" y="380" width="79" height="30" as="geometry"/></mxCell><mxCell id="121" style="edgeStyle=orthogonalEdgeStyle;rounded=0;jumpStyle=none;orthogonalLoop=1;jettySize=auto;html=1;exitX=0.5;exitY=0;exitDx=0;exitDy=0;entryX=0.5;entryY=1;entryDx=0;entryDy=0;fontSize=10;endArrow=halfCircle;endFill=0;" edge="1" parent="10" source="114" target="55"><mxGeometry relative="1" as="geometry"/></mxCell><mxCell id="141" style="edgeStyle=orthogonalEdgeStyle;rounded=0;jumpStyle=none;orthogonalLoop=1;jettySize=auto;html=1;exitX=0.75;exitY=1;exitDx=0;exitDy=0;fontSize=10;endArrow=open;endFill=0;dashed=1;" edge="1" parent="10" source="114" target="88"><mxGeometry relative="1" as="geometry"><mxPoint x="-339" y="140" as="targetPoint"/><Array as="points"><mxPoint x="379" y="280"/><mxPoint x="442" y="280"/></Array></mxGeometry></mxCell><mxCell id="114" value="«Представление»&lt;br&gt;&lt;b&gt;Component&lt;/b&gt;" style="html=1;dropTarget=0;align=left;verticalAlign=top;" vertex="1" parent="10"><mxGeometry x="281" y="210" width="130" height="40" as="geometry"/></mxCell><mxCell id="115" value="" style="shape=module;jettyWidth=8;jettyHeight=4;" vertex="1" parent="114"><mxGeometry x="1" width="20" height="20" relative="1" as="geometry"><mxPoint x="-27" y="7" as="offset"/></mxGeometry></mxCell><mxCell id="88" value="context&lt;br&gt;provider" style="shape=mxgraph.uml25.behaviorAction;html=1;rounded=1;absoluteArcSize=1;arcSize=10;align=left;spacingLeft=5;sketch=0;" vertex="1" parent="10"><mxGeometry x="401" y="360" width="129" height="40" as="geometry"/></mxCell><mxCell id="122" style="edgeStyle=orthogonalEdgeStyle;rounded=0;jumpStyle=none;orthogonalLoop=1;jettySize=auto;html=1;exitX=0.75;exitY=0;exitDx=0;exitDy=0;entryX=0.5;entryY=1;entryDx=0;entryDy=0;fontSize=10;endArrow=halfCircle;endFill=0;" edge="1" parent="10" source="104" target="114"><mxGeometry relative="1" as="geometry"/></mxCell><mxCell id="137" style="edgeStyle=orthogonalEdgeStyle;rounded=0;jumpStyle=none;orthogonalLoop=1;jettySize=auto;html=1;entryX=0.5;entryY=1;entryDx=0;entryDy=0;entryPerimeter=0;fontSize=10;endArrow=halfCircle;endFill=0;" edge="1" parent="10" source="125" target="131"><mxGeometry relative="1" as="geometry"/></mxCell><mxCell id="125" value="service&lt;br&gt;provider" style="shape=mxgraph.uml25.behaviorAction;html=1;rounded=1;absoluteArcSize=1;arcSize=10;align=left;spacingLeft=5;sketch=0;" vertex="1" parent="10"><mxGeometry x="541" y="260" width="129" height="40" as="geometry"/></mxCell><mxCell id="144" style="edgeStyle=orthogonalEdgeStyle;rounded=0;jumpStyle=none;orthogonalLoop=1;jettySize=auto;html=1;exitX=0.75;exitY=1;exitDx=0;exitDy=0;dashed=1;fontSize=10;endArrow=open;endFill=0;entryX=0.14;entryY=0.025;entryDx=0;entryDy=0;entryPerimeter=0;" edge="1" parent="10" source="127" target="88"><mxGeometry relative="1" as="geometry"><mxPoint x="-279" y="340" as="targetPoint"/></mxGeometry></mxCell><mxCell id="127" value="«Представление»&lt;br&gt;&lt;b&gt;Component&lt;/b&gt;" style="html=1;dropTarget=0;align=left;verticalAlign=top;" vertex="1" parent="10"><mxGeometry x="111" y="210" width="130" height="40" as="geometry"/></mxCell><mxCell id="128" value="" style="shape=module;jettyWidth=8;jettyHeight=4;" vertex="1" parent="127"><mxGeometry x="1" width="20" height="20" relative="1" as="geometry"><mxPoint x="-27" y="7" as="offset"/></mxGeometry></mxCell><mxCell id="131" value="api interface" style="shape=folder;fontStyle=1;tabWidth=71;tabHeight=15;tabPosition=left;html=1;boundedLbl=1;folderSymbol=triangle;align=left;verticalAlign=top;" vertex="1" parent="10"><mxGeometry x="481" y="90" width="110" height="45" as="geometry"/></mxCell><mxCell id="133" style="edgeStyle=orthogonalEdgeStyle;rounded=0;jumpStyle=none;orthogonalLoop=1;jettySize=auto;html=1;exitX=0.5;exitY=0;exitDx=0;exitDy=0;fontSize=10;endArrow=halfCircle;endFill=0;" edge="1" parent="10" source="104" target="127"><mxGeometry relative="1" as="geometry"/></mxCell><mxCell id="135" style="edgeStyle=orthogonalEdgeStyle;rounded=0;jumpStyle=none;orthogonalLoop=1;jettySize=auto;html=1;exitX=1;exitY=0.5;exitDx=0;exitDy=0;fontSize=10;endArrow=halfCircle;endFill=0;" edge="1" parent="10" source="123" target="125"><mxGeometry relative="1" as="geometry"/></mxCell><mxCell id="103" value="" style="fontStyle=1;align=center;verticalAlign=top;childLayout=stackLayout;horizontal=1;horizontalStack=0;resizeParent=1;resizeParentMax=0;resizeLast=0;marginBottom=0;" vertex="1" parent="10"><mxGeometry x="196" y="421" width="140" height="150" as="geometry"/></mxCell><mxCell id="104" value="&lt;b&gt;Container&lt;/b&gt;" style="html=1;align=left;spacingLeft=4;verticalAlign=top;strokeColor=none;fillColor=none;" vertex="1" parent="103"><mxGeometry width="140" height="40" as="geometry"/></mxCell><mxCell id="105" value="" style="shape=module;jettyWidth=10;jettyHeight=4;" vertex="1" parent="104"><mxGeometry x="1" width="16" height="20" relative="1" as="geometry"><mxPoint x="-25" y="9" as="offset"/></mxGeometry></mxCell><mxCell id="106" value="" style="line;strokeWidth=1;fillColor=none;align=left;verticalAlign=middle;spacingTop=-1;spacingLeft=3;spacingRight=3;rotatable=0;labelPosition=right;points=[];portConstraint=eastwest;" vertex="1" parent="103"><mxGeometry y="40" width="140" height="8" as="geometry"/></mxCell><mxCell id="107" value="provided" style="html=1;align=center;spacingLeft=4;verticalAlign=top;strokeColor=none;fillColor=none;" vertex="1" parent="103"><mxGeometry y="48" width="140" height="18" as="geometry"/></mxCell><mxCell id="111" value="state, dispatch" style="html=1;align=left;spacingLeft=4;verticalAlign=top;strokeColor=none;fillColor=none;" vertex="1" parent="103"><mxGeometry y="66" width="140" height="20" as="geometry"/></mxCell><mxCell id="109" value="" style="line;strokeWidth=1;fillColor=none;align=left;verticalAlign=middle;spacingTop=-1;spacingLeft=3;spacingRight=3;rotatable=0;labelPosition=right;points=[];portConstraint=eastwest;" vertex="1" parent="103"><mxGeometry y="86" width="140" height="8" as="geometry"/></mxCell><mxCell id="110" value="required" style="html=1;align=center;spacingLeft=4;verticalAlign=top;strokeColor=none;fillColor=none;" vertex="1" parent="103"><mxGeometry y="94" width="140" height="20" as="geometry"/></mxCell><mxCell id="123" value="- state, dispatch&lt;br&gt;- data requests" style="html=1;align=left;spacingLeft=4;verticalAlign=top;strokeColor=none;fillColor=none;" vertex="1" parent="103"><mxGeometry y="114" width="140" height="36" as="geometry"/></mxCell><mxCell id="139" style="edgeStyle=orthogonalEdgeStyle;rounded=0;jumpStyle=none;orthogonalLoop=1;jettySize=auto;html=1;exitX=0;exitY=0.5;exitDx=0;exitDy=0;entryX=0.5;entryY=1;entryDx=0;entryDy=0;fontSize=10;endArrow=halfCircle;endFill=0;" edge="1" parent="10" source="123" target="57"><mxGeometry relative="1" as="geometry"/></mxCell><mxCell id="140" style="edgeStyle=orthogonalEdgeStyle;rounded=0;jumpStyle=none;orthogonalLoop=1;jettySize=auto;html=1;exitX=1;exitY=0.5;exitDx=0;exitDy=0;fontSize=10;endArrow=block;endFill=1;" edge="1" parent="10" source="111" target="88"><mxGeometry relative="1" as="geometry"/></mxCell><mxCell id="145" value="components export" style="rounded=0;whiteSpace=wrap;html=1;align=center;verticalAlign=middle;" vertex="1" parent="10"><mxGeometry x="211" y="640" width="110" height="20" as="geometry"/></mxCell><mxCell id="147" style="edgeStyle=orthogonalEdgeStyle;rounded=0;jumpStyle=none;orthogonalLoop=1;jettySize=auto;html=1;exitX=0.5;exitY=1;exitDx=0;exitDy=0;entryX=0.5;entryY=0;entryDx=0;entryDy=0;fontSize=10;endArrow=oval;endFill=1;" edge="1" parent="10" source="123" target="145"><mxGeometry relative="1" as="geometry"/></mxCell><mxCell id="82" style="edgeStyle=orthogonalEdgeStyle;rounded=0;jumpStyle=none;orthogonalLoop=1;jettySize=auto;html=1;exitX=0.5;exitY=1;exitDx=0;exitDy=0;exitPerimeter=0;entryX=0.5;entryY=0;entryDx=0;entryDy=0;endArrow=oval;endFill=1;" edge="1" parent="6" source="52" target="87"><mxGeometry relative="1" as="geometry"/></mxCell><mxCell id="87" value="services import" style="rounded=0;whiteSpace=wrap;html=1;align=center;verticalAlign=middle;" vertex="1" parent="6"><mxGeometry x="500" y="260" width="110" height="20" as="geometry"/></mxCell><mxCell id="136" style="edgeStyle=orthogonalEdgeStyle;rounded=0;jumpStyle=none;orthogonalLoop=1;jettySize=auto;html=1;exitX=0;exitY=0;exitDx=35.5;exitDy=0;exitPerimeter=0;entryX=0.5;entryY=1;entryDx=0;entryDy=0;fontSize=10;endArrow=halfCircle;endFill=0;" edge="1" parent="6" source="131" target="87"><mxGeometry relative="1" as="geometry"/></mxCell><mxCell id="86" style="edgeStyle=orthogonalEdgeStyle;rounded=0;jumpStyle=none;orthogonalLoop=1;jettySize=auto;html=1;exitX=0.5;exitY=0;exitDx=0;exitDy=0;entryX=0.75;entryY=1;entryDx=0;entryDy=0;endArrow=halfCircle;endFill=0;" edge="1" parent="6" source="55" target="84"><mxGeometry relative="1" as="geometry"><Array as="points"><mxPoint x="385" y="310"/><mxPoint x="304" y="310"/></Array></mxGeometry></mxCell><mxCell id="129" style="edgeStyle=orthogonalEdgeStyle;rounded=0;jumpStyle=none;orthogonalLoop=1;jettySize=auto;html=1;exitX=0.5;exitY=0;exitDx=0;exitDy=0;entryX=0.5;entryY=1;entryDx=0;entryDy=0;fontSize=10;endArrow=halfCircle;endFill=0;" edge="1" parent="6" source="127" target="84"><mxGeometry relative="1" as="geometry"/></mxCell><mxCell id="157" style="edgeStyle=orthogonalEdgeStyle;rounded=0;jumpStyle=none;orthogonalLoop=1;jettySize=auto;html=1;exitX=0;exitY=0;exitDx=35.5;exitDy=0;exitPerimeter=0;entryX=0.5;entryY=1;entryDx=0;entryDy=0;entryPerimeter=0;fontSize=10;endArrow=halfCircle;endFill=0;" edge="1" parent="1" source="52" target="151"><mxGeometry relative="1" as="geometry"/></mxCell><mxCell id="158" style="edgeStyle=orthogonalEdgeStyle;rounded=0;jumpStyle=none;orthogonalLoop=1;jettySize=auto;html=1;exitX=0.5;exitY=0;exitDx=0;exitDy=0;entryX=0.25;entryY=1;entryDx=0;entryDy=0;fontSize=10;endArrow=halfCircle;endFill=0;" edge="1" parent="1" source="46" target="48"><mxGeometry relative="1" as="geometry"/></mxCell><mxCell id="159" style="edgeStyle=orthogonalEdgeStyle;rounded=0;jumpStyle=none;orthogonalLoop=1;jettySize=auto;html=1;exitX=0.5;exitY=0;exitDx=0;exitDy=0;entryX=0.5;entryY=1;entryDx=0;entryDy=0;fontSize=10;endArrow=halfCircle;endFill=0;" edge="1" parent="1" source="53" target="48"><mxGeometry relative="1" as="geometry"/></mxCell><mxCell id="160" style="edgeStyle=orthogonalEdgeStyle;rounded=0;jumpStyle=none;orthogonalLoop=1;jettySize=auto;html=1;exitX=0.75;exitY=0;exitDx=0;exitDy=0;entryX=0.5;entryY=1;entryDx=0;entryDy=0;fontSize=10;endArrow=halfCircle;endFill=0;" edge="1" parent="1" source="53" target="50"><mxGeometry relative="1" as="geometry"/></mxCell></root></mxGraphModel></diagram></mxfile>